<svg width="20" height="27" viewBox="0 0 20 27" fill="none" xmlns="http://www.w3.org/2000/svg">
<path d="M9.11283 26.1703V18.7777L8.89365 19.0633C8.78073 19.2161 8.64125 19.3489 8.48184 19.4751C7.99033 19.8537 7.67816 19.8803 7.64495 19.8803L7.53868 19.8869L7.49883 19.774C7.49218 19.7541 7.33278 19.3091 7.59181 18.7046C8.03019 17.6818 8.78737 17.4825 9.00656 17.4493L9.11283 17.4294V15.8951L8.887 16.287C8.7276 16.5526 8.54162 16.7984 8.31579 17.0043C8.04347 17.2633 7.77779 17.4493 7.53203 17.5689C7.33942 17.6552 7.23314 17.6685 7.21322 17.6685L7.09366 17.6751L7.06045 17.5489C7.05381 17.5224 6.85455 16.8316 7.18665 15.8818C7.65823 14.5135 8.41542 14.0619 8.82058 13.9158L8.97999 13.856L8.88036 13.7032C8.76745 13.5305 8.64125 13.3645 8.50177 13.2117C8.07668 12.7335 7.31285 12.0826 6.09736 11.7173C5.97116 11.6774 5.83168 11.6442 5.68556 11.6176L5.51951 11.5844L5.53943 11.7704C5.57264 12.0427 5.57929 12.315 5.55936 12.5807C5.50622 13.2715 5.24054 14.2479 4.28409 15.0117C3.82579 15.377 3.43392 15.5895 3.12838 15.6427C3.08189 15.6493 3.0354 15.656 2.9889 15.656C2.82285 15.656 2.73651 15.5962 2.71658 15.5763L2.67009 15.5364L2.6568 15.4766C2.65016 15.4301 2.43762 14.3873 2.72986 13.3844C2.93577 12.6803 3.3675 12.1158 4.01841 11.7106L4.62948 11.3719C4.62948 11.3719 1.87969 11.1726 0.212543 12.6671L0.777114 11.9962C1.7867 10.721 4.54313 11.1261 4.84202 11.1527L4.92173 11.1593L4.96158 11.0863C5.04792 10.9269 5.12763 10.7741 5.20069 10.628C5.61914 9.77115 6.0243 9.21986 6.29662 8.90769L6.42282 8.76156L6.25013 8.6885C5.79847 8.49588 5.39331 8.30991 5.02136 8.08408L4.88852 8.00438L4.84202 8.16378C4.7756 8.38297 4.66269 8.71507 4.45679 9.06045C4.11804 9.63831 3.46048 10.3623 2.29149 10.535C2.05902 10.5682 1.84648 10.5881 1.6605 10.5881C1.39482 10.5881 1.17563 10.5549 1.00294 10.4885C0.757188 10.3889 0.684126 10.256 0.670842 10.2162L0.650916 10.163L0.6642 10.1032C0.677484 10.0568 0.936522 9.03389 1.62065 8.29662C2.245 7.63242 3.01547 7.49294 3.54683 7.49294C3.67967 7.49294 3.81251 7.49958 3.93871 7.51951L4.29074 7.55936L4.04498 7.28704C2.42433 5.00883 2.84942 4.57046 2.74315 4.1188L2.88927 4.23836C2.94905 4.48411 3.10182 5.04868 3.38078 5.65975L3.44056 5.79259L3.55347 5.71953C3.95199 5.46713 4.74903 5.02211 5.62578 4.89592C5.98445 4.84278 6.34976 4.81621 6.70843 4.81621C6.94754 4.81621 7.18001 4.8295 7.3992 4.84942L7.53868 4.86271L7.53203 4.7033C7.46562 3.16235 7.67816 2.16605 5.53279 1.92694C5.53279 1.92694 7.83757 1.18968 7.69144 3.36826C7.76451 3.32176 8.12317 3.08929 8.12317 3.08929C8.56155 2.8369 9.23239 2.51144 9.95637 2.41181C10.315 2.35867 10.6803 2.3321 11.0457 2.3321C11.4641 2.3321 11.7829 2.46494 11.7829 2.46494L11.6833 2.81033C11.6368 2.9963 11.5504 3.29519 11.3977 3.64722L11.3512 3.76013L11.4442 3.82655C11.7497 4.03246 12.3541 4.48411 12.9652 5.18152L13.0449 5.27451L13.1312 5.19481C14.3135 4.13873 16.1334 3.81991 16.2065 3.80663L16.419 3.77342L16.3792 4.00589C16.0205 5.99849 14.898 7.04129 14.4397 7.39331L14.36 7.45309L14.3932 7.55272C14.4663 7.75862 14.5327 7.97781 14.5925 8.19699L14.639 8.38961L14.7851 8.26341C15.1504 7.95124 15.7681 7.49958 16.6249 7.14091C17.2028 6.9018 17.8139 6.7756 18.4449 6.7756C18.9364 6.7756 19.2618 6.85531 19.2751 6.85531L19.4279 6.89516L19.3947 7.06121C19.3814 7.11435 19.0626 8.44275 17.8139 9.54532L17.6412 9.69809L17.8537 9.77779C18.0198 9.84421 18.1792 9.91727 18.3319 10.0036C18.8832 10.3291 19.6006 10.98 19.853 12.2553C19.9725 12.8663 19.9991 13.3445 19.9194 13.6766C19.853 13.9556 19.7334 14.042 19.7002 14.0685L19.6537 14.0951L19.6006 14.0818C19.5607 14.0752 18.6043 13.8759 17.8869 13.1851C17.4286 12.7468 17.1364 12.1556 17.0301 11.4383L16.9703 11.0597L16.7976 11.3984C16.4323 12.1158 15.9408 12.6671 15.3298 13.039C14.7851 13.3711 14.1608 13.5372 13.4833 13.5372C12.6663 13.5372 11.9888 13.2914 11.7364 13.1918L11.5704 13.1254V15.1113L11.6833 15.1246C11.7696 15.1379 12.0951 15.191 12.4737 15.4633C12.9586 15.822 13.3438 16.3932 13.6095 17.1571C13.9416 18.1135 13.7357 18.8176 13.7357 18.8242L13.6958 18.9504L13.5763 18.9438C13.5563 18.9438 13.1312 18.9105 12.4737 18.2796C12.2014 18.0205 11.9755 17.715 11.8028 17.3762L11.5704 16.9179V18.5984L11.6766 18.6183C11.9158 18.6582 13.118 18.957 13.7423 20.7172C14.0811 21.6736 13.7357 22.6301 13.7224 22.6766L13.6825 22.7895L13.5763 22.7828C13.5563 22.7828 13.1312 22.7496 12.4538 22.1253C12.2014 21.8862 11.9822 21.5873 11.8095 21.2419L11.577 21.3083V26.1503H11.2715V20.0596L11.0589 20.3187C10.9593 20.4382 10.8398 20.5511 10.7069 20.6574C10.2154 21.036 9.90323 21.0626 9.87002 21.0626L9.76375 21.0692L9.7239 20.9563C9.7239 20.9496 9.69069 20.8699 9.6774 20.7371L9.43165 20.7504V26.1835H9.11283V26.1703ZM11.6235 19.1297C11.6302 19.3224 11.6501 19.6212 11.7099 19.9533C11.8161 20.5246 12.0619 21.3216 12.6397 21.8596C12.9453 22.1452 13.191 22.2847 13.3371 22.3578L13.47 22.4242L13.5032 22.2648C13.5763 21.9061 13.6294 21.3681 13.4434 20.8367C12.9652 19.4818 12.115 19.0965 11.7763 18.9903L11.6102 18.9371L11.6235 19.1297ZM11.0457 19.0035C10.7534 19.1098 10.3549 19.3688 10.0826 20.0131C10.0161 20.1659 9.97629 20.3187 9.96301 20.4714L9.94308 20.7039L10.1357 20.6109C10.2553 20.5511 10.3881 20.4714 10.5209 20.3718C11.0589 19.96 11.1851 19.4353 11.2117 19.1563L11.2316 18.9438L11.0457 19.0035ZM11.0789 13.577C10.3682 13.9888 9.65748 14.0951 9.52464 14.115L9.41172 14.1283V20.3917L9.65748 20.405C9.6774 20.2257 9.7239 20.0463 9.79696 19.8736C10.2021 18.9172 10.8796 18.6847 11.1519 18.6316L11.2516 18.6117V13.4774L11.0789 13.577ZM8.83387 17.8412C8.59476 17.9275 8.15638 18.1733 7.86414 18.8508C7.79772 19.0035 7.75786 19.1563 7.74458 19.3091L7.72465 19.5415L7.91727 19.4486C8.03683 19.3888 8.16967 19.3091 8.30251 19.2028C8.84051 18.791 8.96671 18.2663 8.99328 17.9873L9.0132 17.7748L8.83387 17.8412ZM11.7032 15.6427C11.7032 15.8087 11.7165 16.0744 11.7829 16.3799C11.9224 17.0441 12.2213 17.5954 12.6729 18.0272C12.8988 18.2397 13.1113 18.3991 13.3106 18.4987L13.4766 18.5851L13.4899 18.3858C13.5032 18.1401 13.4833 17.7482 13.3239 17.2833C12.8921 16.0279 12.2279 15.636 11.8693 15.5098L11.7099 15.4567L11.7032 15.6427ZM8.92021 14.2346C8.56155 14.3608 7.89735 14.7527 7.46561 16.008C7.30621 16.4729 7.28628 16.8648 7.29956 17.1106L7.31285 17.3098L7.4789 17.2235C7.67816 17.1172 7.89735 16.9578 8.11653 16.7453C8.99328 15.915 9.08626 14.7991 9.08626 14.3608V14.1748L8.92021 14.2346ZM4.93501 11.6575C4.55642 11.7704 3.38742 12.2154 3.01547 13.4907C2.82285 14.1482 2.87599 14.839 2.91584 15.191L2.93577 15.3239L3.05532 15.3039C3.23466 15.2774 3.56011 15.1578 4.09148 14.7327C4.78224 14.1881 5.16748 13.4641 5.24054 12.5741C5.27375 12.2154 5.24054 11.8966 5.20733 11.6973L5.16748 11.4383L5.06785 11.5512L4.93501 11.6575ZM6.66193 8.96747C6.57559 9.06045 6.4826 9.16008 6.39625 9.273C6.17042 9.55861 5.8184 10.0568 5.45309 10.794C5.41323 10.8737 5.37338 10.9534 5.33353 11.0265L5.24054 11.1992L5.41988 11.2257C5.68556 11.2722 5.93795 11.3254 6.16378 11.3918C8.02354 11.9431 8.90029 13.0988 9.25896 13.7431L9.29217 13.8095L9.58442 13.763C9.88331 13.7099 10.687 13.5305 11.3578 12.9726L11.4375 12.9062L11.3977 12.8065C11.3246 12.6206 11.1984 12.335 10.966 11.9896C10.5807 11.4117 9.83017 10.5615 8.46192 9.77779C7.78443 9.39256 7.20658 9.12687 6.78149 8.93426L6.70843 8.90105L6.66193 8.96747ZM17.3157 10.2759C17.2626 10.7077 17.1829 12.0759 18.0862 12.9394C18.5578 13.391 19.1555 13.6169 19.4677 13.7099L19.5873 13.7431L19.6205 13.6102C19.667 13.4176 19.7002 13.0457 19.5541 12.335C19.3681 11.425 18.9164 10.7475 18.2057 10.3224C17.8936 10.1365 17.6013 10.0435 17.4021 9.99698L17.2825 9.97041L17.2493 10.1232L17.2227 10.256L17.3157 10.2759ZM12.932 5.86565C12.8788 5.93207 12.8257 6.00513 12.7859 6.07819C12.4538 6.60955 12.3608 7.19405 12.5003 7.86489C12.9121 9.89735 12.9652 10.7874 12.4538 12.0361C12.3475 12.2885 12.208 12.5276 12.042 12.7468L11.9158 12.9062L12.1017 12.966C12.4206 13.0722 12.9187 13.1984 13.4899 13.1984C13.6427 13.1984 13.7954 13.1918 13.9416 13.1719L14.0146 13.1652L14.0412 13.0922C14.0744 13.0058 14.3667 12.1955 14.4862 11.0597C14.5991 9.97705 14.5593 8.36304 13.7556 6.84867C13.5763 6.50992 13.3637 6.17782 13.1246 5.86565L13.0316 5.73945L12.932 5.86565ZM16.6449 10.3623C15.8345 10.8073 15.1371 10.9734 14.8781 11.0265L14.7851 11.0464L14.7718 11.146C14.6921 11.8833 14.546 12.4811 14.4331 12.853L14.36 13.1054L14.5925 13.0257C14.7984 12.9527 14.9977 12.8597 15.177 12.7534C16.1201 12.1822 16.5851 11.2324 16.8176 10.5416L16.9238 10.2228L16.6449 10.3623ZM11.225 7.75862C10.8995 7.75862 10.6006 7.77855 10.3416 7.81176C8.94014 8.00438 7.93056 8.4029 7.45233 8.62872L7.18665 8.75492L7.45233 8.88112C7.85085 9.07374 8.22945 9.26636 8.60804 9.48554C10.5409 10.5881 11.318 11.8368 11.6036 12.4877L11.6899 12.6737L11.8095 12.5143C11.9556 12.3283 12.0752 12.1224 12.1615 11.9032C12.6198 10.8007 12.6198 10.0568 12.1881 7.9446L12.1615 7.80512L12.0685 7.79847C11.8825 7.77855 11.577 7.75862 11.225 7.75862ZM18.4515 7.11435C18.0397 7.11435 17.4087 7.17413 16.7379 7.45309C16.0537 7.7387 15.529 8.09072 15.2102 8.33648C15.0043 8.49588 14.8515 8.62872 14.7652 8.71507L14.712 8.76821L14.7253 8.84127C14.8117 9.37927 14.8449 9.95048 14.8183 10.5217L14.8117 10.701L14.9711 10.6612C15.4759 10.5416 16.4722 10.2228 17.4486 9.43241C18.3718 8.6885 18.8102 7.79183 18.9829 7.32025L19.0493 7.14756L18.8832 7.12763C18.7437 7.12099 18.5976 7.11435 18.4515 7.11435ZM3.54019 7.83168C3.05532 7.83168 2.36455 7.95124 1.81991 8.53574C1.36825 9.01396 1.11586 9.65159 1.00294 9.98369L0.96309 10.1165L1.076 10.163C1.21549 10.2228 1.40146 10.2494 1.64057 10.2494C1.81327 10.2494 2.01253 10.2361 2.23836 10.2029C3.08853 10.0833 3.73945 9.63831 4.18446 8.88112C4.42358 8.47596 4.52985 8.09736 4.57634 7.90475L4.59627 7.81176L4.51656 7.74534L4.29738 7.92467C4.14461 7.88482 3.87229 7.83168 3.54019 7.83168ZM6.6885 5.14831C6.34312 5.14831 5.99109 5.17488 5.64571 5.22138C4.83538 5.34093 4.07155 5.76602 3.68631 6.01177L3.5734 6.07819L3.63982 6.19775C3.82579 6.51657 4.02506 6.80217 4.24424 7.04129C4.88187 7.74534 5.53943 8.03094 6.45603 8.42946C6.5623 8.47596 6.67522 8.52245 6.78813 8.57559L7.11359 8.72171L6.78813 8.57559C6.92761 8.49588 7.40584 8.2767 7.79107 8.12393C7.91063 8.07744 8.03683 8.03094 8.16303 7.98445L8.28922 7.93796L8.23609 7.79847C8.12982 7.50623 7.97041 7.06121 7.83093 6.57634L7.79772 6.47007V6.45679L7.79107 6.4435C7.66488 5.99849 7.59181 5.61325 7.5586 5.30772V5.20145L7.45897 5.18817C7.29292 5.16824 7.02724 5.14831 6.6885 5.14831ZM11.1453 4.17858C10.9128 4.61031 10.6405 5.00219 10.3283 5.35422C9.76375 5.97192 8.887 6.26417 8.24937 6.39701L8.10989 6.42358L8.15638 6.5697C8.30251 7.06121 8.46192 7.50623 8.54826 7.73205L8.58811 7.84497L8.69439 7.81176C9.21246 7.66563 9.75711 7.54608 10.3084 7.47302C10.5807 7.43316 10.8929 7.41324 11.2316 7.41324C11.5438 7.41324 11.8228 7.42652 12.0021 7.44645L12.1349 7.45973V7.31361C12.1349 6.80217 12.2678 6.32395 12.5335 5.89222C12.5932 5.79259 12.6663 5.68632 12.746 5.59333L12.8257 5.50034L12.7394 5.40071C12.1682 4.75643 11.6036 4.3247 11.318 4.12544L11.2117 4.05238L11.1453 4.17858ZM15.8345 4.21843C15.2434 4.3712 14.1408 4.72987 13.3504 5.42064L13.2508 5.50698L13.3305 5.61325C13.5895 5.952 13.8154 6.31066 14.0146 6.67597C14.0678 6.76896 14.1143 6.86859 14.1674 6.98151L14.2338 7.12763L14.3534 7.028C14.4995 6.90844 14.7253 6.70254 14.9644 6.41029C15.436 5.8258 15.7814 5.14831 15.9807 4.39112L16.0404 4.1653L15.8345 4.21843ZM11.0191 2.6642C10.6737 2.6642 10.3217 2.69077 9.98293 2.73727C9.06634 2.87011 8.2228 3.38818 7.89735 3.60073L7.84421 3.64058L7.83757 3.71364C7.811 4.20515 7.81764 4.72322 7.87078 5.26123C7.8907 5.46713 7.93056 5.70624 7.99698 5.97856L8.02354 6.09812L8.13646 6.07819C8.74752 5.95864 9.59106 5.68632 10.1091 5.1151C10.8597 4.27821 11.2117 3.33505 11.3512 2.85018L11.4043 2.67749L11.2383 2.67085C11.1652 2.6642 11.0988 2.6642 11.0191 2.6642Z" fill="#5B7129"/>
<path d="M19.8862 12.2819C19.6338 11.0066 18.9164 10.3557 18.3652 10.0302C18.2124 9.94387 18.053 9.86416 17.8869 9.80439L17.6744 9.72468L17.8471 9.57192C19.0958 8.4627 19.4146 7.14094 19.4279 7.08781L19.4677 6.92175L19.315 6.8819C19.3017 6.87526 18.9829 6.8022 18.4847 6.8022C17.8537 6.8022 17.2427 6.92175 16.6648 7.16751C15.808 7.52618 15.1903 7.97119 14.825 8.29001L14.6788 8.41621L14.6323 8.22359C14.5792 8.0044 14.5128 7.78522 14.4331 7.57931L14.3999 7.47968L14.4796 7.41991C14.9445 7.06788 16.0604 6.02508 16.419 4.03248L16.4589 3.80001L16.2464 3.83322C16.1666 3.84651 14.3534 4.16532 13.1711 5.2214L13.0848 5.28118L13.0051 5.18819C12.7792 4.92915 12.5534 4.70332 12.3409 4.51071C12.5733 4.51735 12.8124 4.48414 13.0515 4.37787C13.4966 4.17861 13.9283 3.70702 14.101 3.50776L14.1674 3.4347L14.101 3.37492C14.008 3.28858 13.7955 3.16902 13.3305 3.07603C12.9785 3.00961 12.6464 3.02954 12.3209 3.13581C12.3276 2.98969 12.3143 2.83692 12.2811 2.68415C12.1748 2.186 11.8095 1.648 11.6501 1.43546L11.5969 1.34911L11.5305 1.40889C11.4375 1.48859 11.2848 1.68785 11.1187 2.16608C11.0988 2.22586 11.0789 2.28563 11.0656 2.34541C10.7069 2.34541 10.3416 2.37198 9.98294 2.42512C9.40508 2.51146 8.86044 2.73065 8.44199 2.94984C8.62797 2.57788 8.77409 2.08637 8.66118 1.55501C8.55491 1.05686 8.1896 0.518861 8.03019 0.306317L7.97705 0.219971L7.91063 0.279749C7.81764 0.359453 7.66488 0.558713 7.49883 1.03694C7.37263 1.39561 7.33278 1.76092 7.37927 2.11958C7.25972 2.03324 7.12023 1.95353 6.96747 1.9004C6.50917 1.74099 5.89146 1.79413 5.63906 1.82734L5.53943 1.83398L5.55272 1.92032C5.57264 2.05316 5.65235 2.28563 5.95124 2.68415C6.32983 3.18895 6.84127 3.4812 7.47226 3.54097C7.51211 3.54762 7.43241 3.53433 7.47226 3.54097C7.44569 3.87972 7.54532 4.27824 7.56525 4.71661L7.57189 4.87602L7.43241 4.86273C7.21322 4.84281 6.98075 4.82952 6.74164 4.82952C6.38297 4.82952 6.01766 4.85609 5.65899 4.90923C5.06785 4.98893 4.51657 5.21476 4.09812 5.43395C4.12469 5.02878 4.07819 4.53727 3.79259 4.11883C3.51362 3.70038 2.98226 3.355 2.76308 3.22216L2.67673 3.16902L2.63688 3.24873C2.5771 3.36828 2.51068 3.60739 2.53061 4.11883C2.53725 4.34466 2.5771 4.5572 2.63688 4.7631C2.43098 4.67676 2.20515 4.61698 1.95939 4.60369C1.28191 4.57048 0.458299 4.8893 0.126198 5.02878L0 5.08192L0.0464941 5.20148C0.112914 5.37417 0.312174 5.65977 0.856819 6.08486C1.55423 6.62286 2.34463 6.81548 3.22137 6.64943C3.33429 6.62951 3.44056 6.60958 3.54019 6.58965C3.69296 6.83541 3.87229 7.08116 4.07155 7.30699L4.31731 7.57931L3.96528 7.53946C3.83244 7.52618 3.6996 7.51289 3.5734 7.51289C3.0354 7.51289 2.27157 7.65238 1.64722 8.31658C0.956449 9.0472 0.697411 10.0767 0.690769 10.1232L0.677485 10.183L0.697411 10.2361C0.710695 10.276 0.783757 10.4155 1.02951 10.5084C1.2022 10.5749 1.42139 10.6081 1.68707 10.6081C1.87305 10.6081 2.08559 10.5881 2.31806 10.5549C3.48705 10.3889 4.14461 9.65826 4.48336 9.08041C4.68926 8.73502 4.80217 8.40292 4.86859 8.18374L4.91509 8.02433L5.04793 8.10403C5.41988 8.32986 5.82504 8.51584 6.2767 8.70845L6.44275 8.78816L6.31655 8.93428C6.05087 9.24646 5.64571 9.79774 5.22062 10.6546C5.14756 10.8007 5.06785 10.9535 4.98151 11.1129L4.94165 11.1859L4.86859 11.1793C4.5697 11.1527 3.29444 11.0398 2.43762 11.0863C1.34833 11.1461 0.498151 12.2686 0.305532 12.5608L0.23247 12.6737L0.3321 12.7468C0.478225 12.8531 0.797041 12.9992 1.46124 13.0723C2.03245 13.132 2.55053 13.039 3.02211 12.7933C3.00219 12.8265 2.9889 12.8531 2.96898 12.8863C2.96234 12.8996 2.95569 12.9062 2.94905 12.9195C2.93577 12.9527 2.91584 12.9859 2.90256 13.0191C2.89592 13.0258 2.89592 13.0324 2.88927 13.0457C2.87599 13.0723 2.86271 13.1055 2.84942 13.1387C2.84278 13.1453 2.84278 13.1586 2.83614 13.1652C2.82285 13.1985 2.80957 13.2383 2.79629 13.2715C2.79629 13.2782 2.78964 13.2914 2.78964 13.2981C2.77636 13.3379 2.76308 13.3778 2.74979 13.411C2.47747 14.4073 2.68337 15.4567 2.69666 15.4966L2.70994 15.5564L2.75643 15.5962C2.77636 15.6161 2.86271 15.6759 3.02876 15.6759C3.07525 15.6759 3.12174 15.6693 3.16824 15.6626C3.47377 15.6095 3.86565 15.397 4.32395 15.0316C5.2804 14.2745 5.54608 13.2914 5.59921 12.6007C5.61914 12.335 5.6125 12.0627 5.57929 11.7903L5.55936 11.6044L5.72541 11.6376C5.87154 11.6708 6.01102 11.704 6.13722 11.7372C7.08702 12.0162 7.75787 12.4745 8.20952 12.8929C7.81764 12.7999 7.31949 12.78 6.86119 13.0457C6.43611 13.2914 6.05087 13.8095 5.8981 14.0287L5.83833 14.1084L5.90475 14.1615C6.00438 14.2346 6.2302 14.3342 6.70179 14.3741C7.31285 14.4272 7.8575 14.228 8.32908 13.7829C8.46856 13.6501 8.6014 13.5306 8.68775 13.4309C8.76745 13.5306 8.84051 13.6302 8.90693 13.7298L9.00656 13.8826L8.84715 13.9424C8.44199 14.0885 7.6848 14.5401 7.21322 15.9084C6.88776 16.8582 7.08038 17.5423 7.08702 17.5755L7.12023 17.6951L7.23979 17.6884C7.25972 17.6884 7.37263 17.6752 7.55861 17.5888C7.80436 17.4759 8.07004 17.2833 8.34236 17.0242C8.56819 16.8117 8.76081 16.5726 8.91358 16.3003L9.1394 15.9084V17.4427L9.03313 17.4626C8.81395 17.4958 8.05676 17.6884 7.61838 18.718C7.35935 19.3224 7.51875 19.774 7.5254 19.794L7.56525 19.9069L7.67152 19.9002C7.70473 19.9002 8.0169 19.8737 8.50841 19.4951C8.66782 19.3755 8.80066 19.236 8.92022 19.0833L9.1394 18.7977V26.1902H9.44494L9.45822 26.157H11.2383H11.2914H11.5969V21.315L11.8294 21.2486C12.0021 21.6006 12.2213 21.8995 12.4737 22.132C13.1512 22.7629 13.5763 22.7895 13.5962 22.7895L13.7157 22.8028L13.7556 22.6899C13.7689 22.65 14.1076 21.6869 13.7755 20.7305C13.1578 18.9704 11.949 18.6781 11.7099 18.6316L11.6036 18.6117V16.9313L11.8361 17.3896C12.0088 17.7283 12.2346 18.0338 12.5069 18.2929C13.1711 18.9172 13.5962 18.9504 13.6095 18.9571L13.729 18.9637L13.7689 18.8375C13.7689 18.8309 13.9748 18.1268 13.6427 17.1704C13.377 16.3999 12.9918 15.8287 12.5069 15.4767C12.1283 15.1977 11.8095 15.1446 11.7165 15.1379L11.6036 15.1246V13.1387L11.7696 13.2051C12.022 13.3114 12.6995 13.5505 13.5165 13.5505C14.0213 13.5505 14.4995 13.4575 14.9312 13.2715C14.8382 13.6368 14.8117 14.0752 14.9777 14.5069C15.1571 14.9785 15.6021 15.4501 15.7881 15.6294L15.8611 15.6958L15.9143 15.6294C15.994 15.5298 16.1135 15.3106 16.2065 14.8125C16.3261 14.1748 16.1999 13.577 15.8345 13.0258C15.7881 12.9527 15.7416 12.8796 15.6951 12.8199C16.1534 12.4678 16.532 11.9896 16.8308 11.4118L17.0035 11.073L17.0633 11.4516C17.1762 12.1689 17.4618 12.7601 17.9201 13.1985C18.6375 13.8892 19.5939 14.0885 19.6338 14.0951L19.6869 14.1084L19.7334 14.0818C19.7666 14.0619 19.8862 13.9689 19.9526 13.69C20.0323 13.3711 20.0124 12.8929 19.8862 12.2819Z" fill="#231F20"/>
<path d="M9.1394 26.1708V18.7782L8.92022 19.0639C8.8073 19.2166 8.66782 19.3495 8.50841 19.4757C8.0169 19.8543 7.70473 19.8808 7.67152 19.8808L7.56525 19.8875L7.52539 19.7746C7.51875 19.7546 7.35934 19.3096 7.61838 18.7052C8.05676 17.6823 8.81394 17.4831 9.03313 17.4498L9.1394 17.4299V15.8956L8.91357 16.2875C8.75417 16.5532 8.56819 16.7989 8.34236 17.0048C8.07004 17.2639 7.80436 17.4498 7.5586 17.5694C7.36599 17.6558 7.25971 17.669 7.23979 17.669L7.12023 17.6757L7.08702 17.5495C7.08038 17.5229 6.88112 16.8321 7.21322 15.8823C7.6848 14.5141 8.44199 14.0624 8.84715 13.9163L9.00656 13.8565L8.90693 13.7038C8.79402 13.5311 8.66782 13.365 8.52834 13.2122C8.10325 12.734 7.33942 12.0831 6.12393 11.7178C5.99773 11.6779 5.85825 11.6447 5.71213 11.6182L5.54608 11.585L5.566 11.7709C5.59921 12.0433 5.60585 12.3156 5.58593 12.5813C5.53279 13.272 5.26711 14.2484 4.31066 15.0122C3.85237 15.3775 3.46049 15.5901 3.15495 15.6432C3.10846 15.6499 3.06197 15.6565 3.01547 15.6565C2.84942 15.6565 2.76308 15.5967 2.74315 15.5768L2.69666 15.537L2.68337 15.4772C2.67673 15.4307 2.46419 14.3879 2.75643 13.3849C2.96234 12.6809 3.39407 12.1163 4.04498 11.7112L4.64941 11.3791C4.64941 11.3791 1.89962 11.1798 0.232471 12.6742L0.797042 12.0034C1.80663 10.7281 4.56306 11.1333 4.86195 11.1599L4.94165 11.1665L4.98151 11.0934C5.06785 10.934 5.14756 10.7813 5.22062 10.6351C5.63906 9.77833 6.04423 9.22704 6.31655 8.91487L6.44275 8.76875L6.27005 8.69568C5.8184 8.50307 5.41324 8.31709 5.04128 8.09126L4.90844 8.01156L4.86195 8.17097C4.79553 8.39015 4.68262 8.72225 4.47671 9.06764C4.13797 9.64549 3.48041 10.3695 2.31142 10.5422C2.07895 10.5754 1.86641 10.5953 1.68043 10.5953C1.41475 10.5953 1.19556 10.5621 1.02287 10.4957C0.777116 10.396 0.704054 10.2632 0.69077 10.2233L0.664202 10.1569L0.677486 10.0971C0.69077 10.0507 0.949808 9.02778 1.63393 8.29052C2.25828 7.62632 3.02876 7.48684 3.56012 7.48684C3.69296 7.48684 3.8258 7.49348 3.952 7.51341L4.30402 7.55326L4.05827 7.28094C2.43762 5.00273 2.86271 4.56436 2.75643 4.1127L2.90256 4.23226C2.96234 4.47801 3.1151 5.04258 3.39407 5.65364L3.45384 5.78648L3.56676 5.71342C3.96528 5.46103 4.76232 5.01601 5.63906 4.88981C5.99773 4.83668 6.36304 4.81011 6.72171 4.81011C6.96082 4.81011 7.19329 4.82339 7.41248 4.84332L7.55196 4.8566L7.54532 4.6972C7.4789 3.15625 7.69144 2.15995 5.54608 1.92084C5.54608 1.92084 7.85085 1.18357 7.70473 3.36215C7.77779 3.31566 8.13646 3.08319 8.13646 3.08319C8.57483 2.83079 9.24567 2.50533 9.96965 2.4057C10.3283 2.35257 10.6936 2.326 11.0589 2.326C11.4774 2.326 11.7962 2.45884 11.7962 2.45884L11.7099 2.81087C11.6634 2.99684 11.577 3.29573 11.4243 3.64776L11.3778 3.76067L11.4707 3.82709C11.7763 4.03299 12.3807 4.48465 12.9918 5.18206L13.0715 5.27505L13.1578 5.19535C14.3401 4.13927 16.16 3.82045 16.2331 3.80717L16.4456 3.77396L16.4058 3.99314C16.0471 5.98574 14.9246 7.02854 14.4663 7.38057L14.3866 7.44034L14.4198 7.53997C14.4929 7.74588 14.5593 7.96506 14.6191 8.18425L14.6656 8.37687L14.8117 8.25067C15.177 7.9385 15.7947 7.48684 16.6515 7.12817C17.2294 6.88906 17.8404 6.76286 18.4714 6.76286C18.9629 6.76286 19.2884 6.84256 19.3017 6.84256L19.4544 6.88242L19.4146 7.04847C19.4013 7.1016 19.0825 8.43 17.8338 9.53258L17.6611 9.68534L17.8736 9.76505C18.0397 9.83147 18.1991 9.90453 18.3519 9.99088C18.9032 10.3163 19.6205 10.9672 19.8729 12.2425C19.9924 12.8536 20.019 13.3318 19.9393 13.6639C19.8729 13.9429 19.7533 14.0292 19.7201 14.0558L19.6736 14.0824L19.6205 14.0691C19.5806 14.0624 18.6242 13.8632 17.9069 13.1724C17.4486 12.734 17.1563 12.1429 17.05 11.4255L16.9903 11.047L16.8176 11.3857C16.4523 12.103 15.9607 12.6543 15.3497 13.0263C14.805 13.3584 14.1807 13.5244 13.5032 13.5244C12.6862 13.5244 12.0087 13.2787 11.7564 13.179L11.5903 13.1126V15.0986L11.7032 15.1119C11.7896 15.1251 12.115 15.1783 12.4936 15.4506C12.9785 15.8093 13.3637 16.3805 13.6294 17.1443C13.9615 18.1008 13.7556 18.8048 13.7556 18.8115L13.7157 18.9377L13.5962 18.931C13.5763 18.931 13.1512 18.8978 12.4936 18.2668C12.2213 18.0078 11.9955 17.7022 11.8228 17.3635L11.5903 16.9052V18.5856L11.6966 18.6056C11.9357 18.6454 13.1379 18.9443 13.7622 20.7044C14.101 21.6609 13.7556 22.6173 13.7423 22.6638L13.7025 22.7767L13.5962 22.7701C13.5763 22.7701 13.1512 22.7369 12.4737 22.1125C12.2213 21.8734 12.0021 21.5745 11.8294 21.2291L11.5969 21.2956V26.1376H11.2914V20.0469L11.0789 20.3059C10.9792 20.4255 10.8597 20.5384 10.7268 20.6447C10.2353 21.0232 9.92316 21.0498 9.88995 21.0498L9.78368 21.0565L9.74382 20.9435C9.74382 20.9369 9.71062 20.8572 9.69733 20.7244L9.45158 20.7376V26.1708H9.1394ZM11.6501 19.1303C11.6567 19.3229 11.6766 19.6218 11.7364 19.9539C11.8427 20.5251 12.0885 21.3221 12.6663 21.8601C12.9718 22.1457 13.2176 22.2852 13.3637 22.3583L13.4966 22.4247L13.5298 22.2653C13.6028 21.9066 13.656 21.3686 13.47 20.8373C12.9918 19.4823 12.1416 19.0971 11.8028 18.9908L11.6368 18.9377L11.6501 19.1303ZM11.0722 19.0041C10.78 19.1103 10.3815 19.3694 10.1091 20.0137C10.0427 20.1664 10.0029 20.3192 9.98958 20.472L9.96965 20.7044L10.1623 20.6114C10.2818 20.5517 10.4147 20.472 10.5475 20.3723C11.0855 19.9605 11.2117 19.4358 11.2383 19.1568L11.2582 18.9443L11.0722 19.0041ZM11.1054 13.5776C10.3947 13.9894 9.68405 14.0956 9.55121 14.1156L9.43829 14.1288V20.3923L9.68405 20.4055C9.70397 20.2262 9.75047 20.0469 9.82353 19.8742C10.2287 18.9177 10.9062 18.6853 11.1785 18.6321L11.2914 18.6056V13.4713L11.1054 13.5776ZM8.86044 17.8417C8.62133 17.9281 8.18295 18.1738 7.89071 18.8513C7.82429 19.0041 7.78443 19.1568 7.77115 19.3096L7.75122 19.5421L7.94384 19.4491C8.0634 19.3893 8.19624 19.3096 8.32908 19.2033C8.86708 18.7915 8.99328 18.2668 9.01985 17.9879L9.03977 17.7753L8.86044 17.8417ZM11.7298 15.6432C11.7298 15.8093 11.7431 16.075 11.8095 16.3805C11.949 17.0447 12.2479 17.596 12.6995 18.0277C12.9253 18.2402 13.1379 18.3997 13.3372 18.4993L13.5032 18.5856L13.5165 18.3864C13.5298 18.1406 13.5098 17.7487 13.3504 17.2838C12.9187 16.0285 12.2545 15.6366 11.8958 15.5104L11.7364 15.4572L11.7298 15.6432ZM8.94678 14.2351C8.58812 14.3613 7.92391 14.7532 7.49218 16.0085C7.33278 16.4735 7.31285 16.8654 7.32613 17.1111L7.33942 17.3104L7.50547 17.224C7.70473 17.1177 7.92391 16.9583 8.1431 16.7458C9.01985 15.9155 9.11283 14.7997 9.11283 14.3613V14.1753L8.94678 14.2351ZM4.96158 11.658C4.58299 11.7709 3.41399 12.2159 3.04204 13.4912C2.84942 14.1488 2.90256 14.8395 2.94241 15.1916L2.96234 15.3244L3.08189 15.3045C3.26123 15.2779 3.58668 15.1584 4.11805 14.7333C4.80881 14.1886 5.19405 13.4646 5.26711 12.5746C5.30032 12.2159 5.26711 11.8971 5.2339 11.6979L5.19405 11.4388L5.09442 11.5517L4.96158 11.658ZM6.6885 8.96801C6.60216 9.06099 6.50917 9.16062 6.42282 9.27354C6.19699 9.55914 5.84497 10.0573 5.47966 10.7946C5.4398 10.8743 5.39995 10.954 5.3601 11.027L5.26711 11.1997L5.44645 11.2263C5.71213 11.2728 5.96452 11.3259 6.19035 11.3923C8.05011 11.9436 8.92686 13.0993 9.28553 13.7436L9.31874 13.81L9.61098 13.7635C9.90987 13.7104 10.7136 13.5311 11.3844 12.9731L11.4641 12.9067L11.4243 12.8071C11.3512 12.6211 11.225 12.3355 10.9925 11.9901C10.6073 11.4123 9.85674 10.5621 8.48849 9.77833C7.811 9.39309 7.23315 9.12741 6.80806 8.9348L6.735 8.90159L6.6885 8.96801ZM17.3423 10.2765C17.2891 10.7082 17.2094 12.0765 18.1128 12.9399C18.5843 13.3916 19.1821 13.6174 19.4943 13.7104L19.6138 13.7436L19.6471 13.6108C19.6936 13.4181 19.7268 13.0462 19.5806 12.3355C19.3947 11.4255 18.943 10.7481 18.2323 10.323C17.9201 10.137 17.6279 10.044 17.4286 9.99752L17.3091 9.97095L17.2759 10.1237L17.2493 10.2566L17.3423 10.2765ZM12.9586 5.86619C12.9054 5.93261 12.8523 6.00567 12.8124 6.07873C12.4803 6.61009 12.3873 7.19459 12.5268 7.86543C12.9386 9.89789 12.9918 10.7879 12.4737 12.0366C12.3674 12.289 12.2279 12.5281 12.0619 12.7473L11.9357 12.9067L12.1217 12.9665C12.4405 13.0728 12.9386 13.199 13.5098 13.199C13.6626 13.199 13.8154 13.1923 13.9615 13.1724L14.0346 13.1658L14.0611 13.0927C14.0943 13.0063 14.3866 12.196 14.5061 11.0602C14.6191 9.97759 14.5792 8.36358 13.7755 6.84921C13.5962 6.51046 13.3836 6.17836 13.1445 5.86619L13.0515 5.73999L12.9586 5.86619ZM16.6714 10.3628C15.8611 10.8078 15.1637 10.9739 14.9047 11.027L14.8117 11.047L14.7984 11.1466C14.7187 11.8838 14.5726 12.4816 14.4597 12.8536L14.3866 13.106L14.6191 13.0263C14.825 12.9532 15.0242 12.8602 15.2036 12.754C16.1467 12.1827 16.6117 11.2329 16.8441 10.5422L16.9504 10.2233L16.6714 10.3628ZM11.2516 7.75916C10.9261 7.75916 10.6272 7.77909 10.3682 7.8123C8.96671 8.00492 7.95713 8.40344 7.4789 8.62926L7.21322 8.75546L7.4789 8.88166C7.87742 9.07428 8.25601 9.2669 8.63461 9.48608C10.5674 10.5887 11.3445 11.8374 11.6302 12.4883L11.7165 12.6742L11.8361 12.5148C11.9822 12.3289 12.1017 12.123 12.1881 11.9038C12.6464 10.8012 12.6464 10.0573 12.2147 7.94514L12.1881 7.80566L12.0951 7.79901C11.9091 7.77909 11.6036 7.75916 11.2516 7.75916ZM18.4781 7.11489C18.0663 7.11489 17.4353 7.17466 16.7644 7.45363C16.0803 7.73923 15.5556 8.09126 15.2368 8.33702C15.0309 8.49642 14.8781 8.62926 14.7917 8.71561L14.7386 8.76875L14.7519 8.84181C14.8382 9.37981 14.8715 9.95102 14.8449 10.5222L14.8382 10.7016L14.9977 10.6617C15.5024 10.5422 16.4987 10.2233 17.4751 9.43295C18.3984 8.68904 18.8367 7.79237 19.0094 7.32079L19.0758 7.1481L18.9098 7.12817C18.7703 7.12153 18.6242 7.11489 18.4781 7.11489ZM3.56676 7.83222C3.08189 7.83222 2.39112 7.95178 1.84648 8.53628C1.39482 9.0145 1.14243 9.65213 1.02951 9.98423L0.98966 10.1171L1.10257 10.1636C1.24206 10.2233 1.42803 10.2499 1.66715 10.2499C1.83984 10.2499 2.0391 10.2366 2.26493 10.2034C3.1151 10.0839 3.76602 9.63885 4.21103 8.88166C4.45015 8.4765 4.55642 8.0979 4.60291 7.90528L4.62284 7.8123L4.54313 7.74588L4.32395 7.92521C4.17118 7.88536 3.89886 7.83222 3.56676 7.83222ZM6.72171 5.14885C6.37633 5.14885 6.0243 5.17542 5.67892 5.22191C4.86195 5.34147 4.09812 5.76656 3.71288 6.01231L3.60661 6.07873L3.67303 6.19829C3.85901 6.51711 4.05827 6.80271 4.27745 7.04182C4.91509 7.74588 5.57264 8.03148 6.48924 8.43C6.59551 8.4765 6.70843 8.52299 6.82134 8.57613L7.1468 8.72225L6.82134 8.57613C6.96082 8.49642 7.43905 8.27724 7.82428 8.12447C7.94384 8.07798 8.07004 8.03148 8.20288 7.98499L8.32908 7.93849L8.27594 7.79901C8.16967 7.50676 8.01026 7.06175 7.87078 6.57688L7.83757 6.47061V6.45733L7.83093 6.44404C7.70473 5.99903 7.63167 5.61379 7.59846 5.30826L7.58517 5.20199L7.48554 5.1887C7.31949 5.16878 7.05381 5.14885 6.72171 5.14885ZM11.1719 4.17912C10.9394 4.61085 10.6671 5.00273 10.3549 5.35475C9.79032 5.9791 8.91357 6.27135 8.28258 6.40419L8.1431 6.43076L8.1896 6.57688C8.33572 7.06839 8.49513 7.51341 8.58147 7.73923L8.62133 7.85215L8.7276 7.81894C9.24567 7.67281 9.79032 7.55326 10.3416 7.4802C10.6139 7.44034 10.9261 7.42042 11.2648 7.42042C11.577 7.42042 11.856 7.4337 12.0353 7.45363L12.1682 7.46691V7.32079C12.1682 6.80935 12.301 6.33113 12.5667 5.8994C12.6265 5.79977 12.6995 5.6935 12.7792 5.60051L12.8589 5.50752L12.7659 5.40125C12.1947 4.75697 11.6302 4.32524 11.3445 4.12598L11.2383 4.05292L11.1719 4.17912ZM15.8611 4.21897C15.27 4.37174 14.1674 4.73041 13.377 5.42117L13.2774 5.50752L13.3571 5.61379C13.6161 5.95253 13.8419 6.3112 14.0412 6.67651C14.0943 6.7695 14.1408 6.86913 14.194 6.98205L14.2604 7.12817L14.3799 7.02854C14.5261 6.90898 14.7519 6.70308 14.991 6.41083C15.4626 5.82634 15.808 5.14885 16.0072 4.39166L16.067 4.16584L15.8611 4.21897ZM11.0457 2.66474C10.7003 2.66474 10.3482 2.69131 10.0095 2.7378C9.09291 2.87064 8.24937 3.38872 7.92391 3.60126L7.87078 3.64112L7.86414 3.71418C7.83757 4.20569 7.84421 4.72376 7.89735 5.26177C7.91727 5.46767 7.95712 5.70678 8.02354 5.9791L8.05011 6.09866L8.16303 6.07873C8.77409 5.95918 9.61763 5.68685 10.1357 5.11564C10.8862 4.27875 11.2383 3.33558 11.3778 2.85072L11.4309 2.67803L11.2648 2.67138C11.1918 2.66474 11.1254 2.66474 11.0457 2.66474Z" fill="#5B7129"/>
<path d="M3.04204 13.4909C2.84942 14.1485 2.90255 14.8392 2.94241 15.1913L2.96233 15.3241L3.08189 15.3042C3.26122 15.2776 3.58668 15.1581 4.11804 14.733C4.80881 14.1883 5.19405 13.4644 5.26711 12.5743C5.30032 12.2157 5.26711 11.8968 5.2339 11.6976L5.19405 11.4385C5.20069 11.4385 3.41399 12.2223 3.04204 13.4909Z" fill="#D7751E"/>
<path d="M7.47226 15.8753C7.31285 16.4133 7.29957 16.938 7.33278 17.2303L7.34606 17.3432L7.43905 17.3299C7.57189 17.31 7.81765 17.2103 8.22281 16.8583C8.74088 16.4066 9.03313 15.8089 9.09291 15.0782C9.11284 14.7794 9.1394 14.5203 9.11948 14.3543L9.08627 14.1417C9.08627 14.1417 7.82429 14.693 7.47226 15.8753Z" fill="#FFCD00"/>
<path d="M2.02582 8.40296C1.52767 8.88782 1.16236 9.738 1.02287 10.0834L0.969738 10.2162L1.08265 10.2627C1.24206 10.3291 1.5808 10.3889 2.23836 10.2694C3.08854 10.1232 3.77266 9.65165 4.27746 8.87454C4.48336 8.56237 4.66269 8.2834 4.7424 8.08414L4.83539 7.8251C4.84203 7.8251 3.12839 7.32695 2.02582 8.40296Z" fill="#FFCD00"/>
<path d="M10.0693 19.8205C9.91652 20.1526 9.86338 20.498 9.86338 20.6906V20.7637H9.92316C10.0095 20.7637 10.1822 20.7238 10.4744 20.5312C10.853 20.2921 11.0922 19.9268 11.1918 19.4552C11.2316 19.2626 11.2715 19.0965 11.2715 18.9902V18.8441C11.2648 18.8508 10.4014 19.0899 10.0693 19.8205Z" fill="#D7751E"/>
<path d="M12.3807 21.5412C12.746 21.9995 13.191 22.3116 13.4567 22.4511L13.5563 22.5043L13.5962 22.4046C13.656 22.2651 13.7091 21.9729 13.6427 21.3818C13.5563 20.6246 13.2309 19.967 12.6331 19.4954C12.394 19.3028 12.1748 19.17 12.0154 19.0969L11.6567 18.8844C11.6634 18.8777 11.577 20.5249 12.3807 21.5412Z" fill="#FFCD00"/>
<path d="M18.0862 12.9064C18.571 13.3979 19.129 13.7101 19.4611 13.8297L19.5873 13.8762L19.6205 13.7566C19.6736 13.5839 19.7068 13.2319 19.554 12.5477C19.3681 11.671 18.8965 10.9404 18.1459 10.4622C17.8404 10.2695 17.5681 10.1367 17.3755 10.0703L16.9238 9.86438C16.9305 9.87102 17.0234 11.8171 18.0862 12.9064Z" fill="#D7751E"/>
<path d="M12.3143 17.7084C12.6597 18.1402 13.0781 18.4391 13.3305 18.5653L13.4235 18.6117L13.4633 18.5188C13.5165 18.3859 13.5696 18.107 13.5098 17.5557C13.4301 16.845 13.118 16.2206 12.56 15.7756C12.3342 15.5963 12.1283 15.4634 11.9822 15.397L11.6434 15.1978C11.6434 15.1978 11.5571 16.752 12.3143 17.7084Z" fill="#D7751E"/>
<path d="M12.5003 6.24446C12.0021 5.7596 11.1718 5.44742 10.8331 5.32787L10.7069 5.28137L10.6737 5.40093C10.6272 5.58026 10.6006 5.93229 10.7667 6.62306C10.9792 7.50644 11.4774 8.19057 12.2479 8.65551C12.56 8.84149 12.8324 9.01418 13.0316 9.07396L13.284 9.16695C13.284 9.16695 13.6028 7.32047 12.5003 6.24446Z" fill="#D7751E"/>
<path d="M11.318 10.721C11.3379 10.0037 11.0191 9.13356 10.8796 8.78817L10.8265 8.65533L10.7202 8.70847C10.5608 8.78817 10.2885 9.00072 9.90323 9.58522C9.41173 10.3358 9.24568 11.1793 9.42501 12.1092C9.49807 12.4811 9.55121 12.8132 9.63755 13.0125L9.74383 13.2649C9.74383 13.2582 11.2715 12.3084 11.318 10.721Z" fill="#D7751E"/>
<path d="M14.6722 11.5375C14.4464 11.046 13.9416 10.5877 13.7357 10.4017L13.656 10.3353L13.6028 10.4084C13.5231 10.5213 13.4102 10.7671 13.3504 11.2984C13.2707 11.9892 13.4434 12.6135 13.8685 13.1715C14.0412 13.3973 14.1873 13.5966 14.3069 13.6962L14.4663 13.8224C14.4596 13.829 15.1703 12.6202 14.6722 11.5375Z" fill="#FFCD00"/>
</svg>
