<svg width="18" height="23" viewBox="0 0 18 23" fill="none" xmlns="http://www.w3.org/2000/svg">
<path d="M8.94242 7.28796C7.32578 7.25874 5.9526 6.34329 4.95924 4.61952C4.18014 3.26583 3.83928 1.75631 3.72241 1.18172C3.6932 0.99668 3.74189 0.811642 3.85876 0.685038C3.98536 0.558433 4.15092 0.5 4.32622 0.519478C4.85211 0.587649 5.16376 0.821381 5.44618 1.0259C5.73835 1.24989 5.97208 1.42519 6.4785 1.42519C6.98492 1.42519 7.21865 1.24989 7.51081 1.0259C7.84193 0.782426 8.22175 0.5 8.95216 0.5C9.68257 0.5 10.0624 0.782426 10.3935 1.0259C10.6857 1.24989 10.9194 1.42519 11.4258 1.42519C11.9322 1.42519 12.166 1.24989 12.4581 1.0259C12.7308 0.821381 13.0522 0.587649 13.5781 0.519478C13.7534 0.5 13.9287 0.558433 14.0456 0.685038C14.1624 0.811642 14.2209 0.99668 14.1819 1.18172C14.065 1.76605 13.7242 3.27556 12.9451 4.62926C11.9517 6.34329 10.5785 7.25874 8.9619 7.28796H8.94242ZM4.42361 1.23041C4.55995 1.87317 4.89107 3.13922 5.55331 4.2884C6.4298 5.80766 7.56925 6.5965 8.95216 6.61598H8.9619C10.3351 6.5965 11.4843 5.8174 12.3607 4.2884C13.023 3.13922 13.3444 1.87317 13.4807 1.23041C13.2372 1.29858 13.0619 1.42519 12.8672 1.57127C12.536 1.82448 12.1562 2.09717 11.4258 2.09717C10.6954 2.09717 10.3156 1.81474 9.98447 1.57127C9.69231 1.35702 9.45858 1.18172 8.95216 1.18172C8.44574 1.18172 8.21201 1.35702 7.91984 1.58101C7.58872 1.82448 7.20891 2.10691 6.4785 2.10691C5.74809 2.10691 5.36827 1.82448 5.03715 1.58101C4.84238 1.42519 4.67682 1.29858 4.42361 1.23041Z" fill="#659C57"/>
<path d="M9.29302 7.249L9.00085 6.63546C9.01059 6.62572 10.0624 6.06087 10.2572 3.55799L10.9291 3.60668C10.7051 6.54781 9.35145 7.21979 9.29302 7.249Z" fill="#659C57"/>
<path d="M8.6113 7.249C8.55287 7.21979 7.19917 6.54781 6.96544 3.61642L7.63742 3.56773C7.84193 6.06087 8.89373 6.63546 8.90346 6.63546L8.6113 7.249Z" fill="#659C57"/>
<path d="M9.11772 22.5C8.38731 22.5 7.64716 22.461 6.89727 22.3831C4.00484 22.0715 1.78439 21.2242 0.722855 20.7568C0.245653 20.5425 -0.0659897 19.9582 0.0119208 19.4323L0.76181 14.037C0.771549 13.9688 1.01502 12.1671 2.14472 10.3459C3.19652 8.65139 5.23193 6.62572 8.9619 6.62572C12.6919 6.62572 14.737 8.65139 15.7791 10.3459C16.899 12.1671 17.1522 13.9688 17.162 14.0467L17.9119 19.4323C17.9898 19.9582 17.6684 20.5328 17.2009 20.7568C14.6396 21.9059 11.9322 22.5 9.11772 22.5ZM8.97164 7.28796C6.22529 7.28796 4.1217 8.43714 2.72905 10.6868C1.67726 12.3911 1.44353 14.0954 1.44353 14.1149L0.6839 19.5199C0.654683 19.7537 0.800765 20.0361 1.00528 20.1335C2.17394 20.6594 5.22219 21.8183 9.10798 21.8183C11.4745 21.8183 14.1527 21.3898 16.9185 20.1335C17.123 20.0458 17.2691 19.7537 17.2399 19.5297L16.49 14.1344C16.49 14.1149 16.2465 12.3814 15.1947 10.6868C13.8021 8.4274 11.7082 7.28796 8.97164 7.28796Z" fill="#659C57"/>
<path d="M10.2182 22.4513C7.40369 21.8767 5.04689 21.01 3.21599 19.8705L3.57633 19.2959C5.33906 20.3964 7.61794 21.234 10.3545 21.7891L10.2182 22.4513Z" fill="#659C57"/>
<path d="M1.94021 18.9648C0.781288 18.0007 0.391735 17.2508 0.372257 17.2216L0.976064 16.9197C0.976064 16.9294 1.32666 17.5916 2.36872 18.4487L1.94021 18.9648Z" fill="#659C57"/>
<path d="M17.5905 19.8121C16.1589 19.8023 14.7175 19.6563 13.3152 19.3544L13.4515 18.6921C14.8149 18.9843 16.2076 19.1304 17.5905 19.1401V19.8121Z" fill="#659C57"/>
<path d="M11.8349 18.9843C8.436 18.0104 5.74809 16.3353 4.09249 15.1082C2.30054 13.774 1.31692 12.6735 1.27797 12.6346L1.78439 12.1866C1.82334 12.2255 5.70913 16.5301 12.0199 18.3415L11.8349 18.9843Z" fill="#659C57"/>
<path d="M16.9867 15.6536C13.0327 15.4101 9.68257 13.5403 7.57899 12.021C5.3001 10.3752 3.97562 8.79748 3.91719 8.72931L4.43335 8.29106C4.44308 8.31054 5.7773 9.87849 7.98802 11.4757C10.0234 12.9462 13.2372 14.7479 17.0256 14.9719L16.9867 15.6536Z" fill="#659C57"/>
<path d="M15.5551 11.0471C11.6011 10.2778 8.83529 7.30744 8.71843 7.18083L9.21511 6.72311C9.24432 6.75232 11.9517 9.65449 15.6817 10.3849L15.5551 11.0471Z" fill="#659C57"/>
</svg>
