<svg width="22" height="23" viewBox="0 0 22 23" fill="none" xmlns="http://www.w3.org/2000/svg">
<path d="M10.9501 3.60305C10.9501 3.60305 10.7843 1.71772 9.84162 0.879794C9.19572 0.30372 8.45381 0.425918 7.98248 0.958349C7.51114 1.49078 7.4675 2.24142 8.1134 2.80877C9.05607 3.65542 10.9501 3.60305 10.9501 3.60305ZM10.9501 3.60305C10.9501 3.60305 11.116 1.71772 12.0586 0.879794C12.7045 0.30372 13.4464 0.425918 13.9178 0.958349C14.3978 1.49078 14.424 2.24142 13.7781 2.81749C12.8442 3.65542 10.9501 3.60305 10.9501 3.60305ZM17.0076 6.65798V12.2791H12.4078H19.0501V18.4064H12.4078H21.6075V22.4913H0.659363V18.4064H9.85908H3.21678V12.2791H9.85908H5.25922V6.65798M12.4078 6.65798H17.5226V3.59432H4.74425V6.65798H9.85908M9.85908 3.59432H12.4165V22.5H9.85908V3.59432Z" stroke="#659C57" stroke-width="0.75" stroke-miterlimit="10"/>
</svg>
