<svg width="24" height="24" viewBox="0 0 24 24" fill="none" xmlns="http://www.w3.org/2000/svg">
<g clip-path="url(#clip0_4420_9543)">
<path fill-rule="evenodd" clip-rule="evenodd" d="M12.0036 0C18.6283 0 24.0072 5.37174 24.0072 12.0036C24.0072 18.6283 18.6355 24.0072 12.0036 24.0072C5.37894 24.0072 0 18.6355 0 12.0036C0 5.37894 5.37174 0 12.0036 0ZM14.6031 5.35734C14.8263 7.24393 15.8776 8.36724 17.6994 8.48245V10.5995C16.6409 10.7003 15.712 10.3546 14.6319 9.70657V13.667C14.6319 18.7075 9.13771 20.2772 6.93429 16.6697C5.51575 14.351 6.38704 10.2682 10.9379 10.1098V12.3492C10.5923 12.4068 10.225 12.4933 9.88659 12.6085C8.87129 12.9469 8.30243 13.595 8.46085 14.7255C8.77048 16.8929 12.7453 17.5338 12.414 13.2997V5.36454H14.6103L14.6031 5.35734Z" fill="#591F12"/>
</g>
<defs>
<clipPath id="clip0_4420_9543">
<rect width="24" height="24" fill="white"/>
</clipPath>
</defs>
</svg>
