<svg width="20" height="30" viewBox="0 0 20 30" fill="none" xmlns="http://www.w3.org/2000/svg">
<g clip-path="url(#clip0_4420_9812)">
<path d="M15.194 18.0135C15.194 17.9335 15.1318 17.898 14.9897 17.898C14.5368 17.8803 13.9241 17.7648 13.6399 17.3119C13.1515 16.5393 13.5955 16.0598 13.4445 15.5092C13.2936 14.9586 12.6453 14.6389 12.0414 15.0208C11.3399 15.4737 11.8549 16.7702 12.7785 17.4185C13.1426 17.676 13.7642 17.9513 14.4747 18.0756C14.6878 18.1112 14.8743 18.1289 15.0252 18.12C15.1496 18.1289 15.194 18.0845 15.194 18.0135Z" fill="#653230"/>
<path d="M18.977 18.2885C17.9291 19.3808 16.5172 20.0468 14.9631 20.0468C11.7484 20.0468 9.13751 17.1873 9.13751 13.6618C9.13751 10.1363 11.5175 7.29461 14.7322 7.29461C15.7801 7.29461 16.7392 7.60542 17.423 8.28034C17.938 8.7954 17.5739 9.48807 17.8759 9.92321C18.3643 10.6158 19.279 10.456 19.572 10.1629C20.0693 9.66568 19.8296 9.01741 19.4211 8.60891C18.2311 7.44558 16.5438 6.99268 14.7677 6.99268C10.8248 6.99268 7.84985 9.95873 7.84985 13.6441C7.84985 17.3206 11.0468 20.3044 14.9897 20.3044C16.7569 20.3044 18.3643 19.7094 19.6164 18.7148C19.7763 18.5816 19.8828 18.253 19.6875 18.0931C19.4033 17.8889 19.0925 18.1731 18.977 18.2885Z" fill="#653230"/>
<path d="M18.4176 13.5196C17.5473 12.6937 15.6469 12.1876 14.3947 11.8057C13.4801 11.5038 13.0804 10.971 13.0804 10.3404C13.0804 9.35476 13.8886 9.1061 14.3326 8.98178C14.5102 8.93738 14.4924 8.83969 14.4658 8.79529C14.4303 8.72425 14.3592 8.6976 14.226 8.72425C13.7021 8.85745 13.2936 9.04394 12.8851 9.34588C11.8905 10.1007 11.4376 12.5073 14.1639 13.3243C14.2704 13.3598 16.0731 13.9814 16.5616 14.159C17.4762 14.4787 18.3021 14.9316 18.3909 16.0683C18.462 16.9386 17.7782 17.4004 17.3164 17.6135C17.2187 17.6579 17.2276 17.7201 17.2542 17.7645C17.2898 17.8089 17.3697 17.8355 17.494 17.7733C17.7959 17.6313 18.1778 17.3915 18.5774 16.983C19.4655 16.0772 19.5187 14.5675 18.4176 13.5196Z" fill="#653230"/>
<path d="M7.59235 19.2921L6.89079 19.1944C5.68306 19.0257 5.61202 18.6971 5.61202 16.2905V11.5039C5.61202 9.09734 6.84639 8.15601 8.06301 7.99617L8.76456 7.89848C8.99545 7.72975 8.93329 7.16141 8.69352 7.06372C7.69003 7.11701 5.60313 8.08497 4.43092 8.08497C3.22318 8.08497 1.15405 7.26797 0.212726 7.19693C-0.018165 7.30349 -0.0892082 7.87184 0.141683 8.04057L0.843235 8.13825C2.08649 8.30698 3.11662 9.08846 3.11662 11.4951V16.2816C3.11662 18.6882 3.0811 19.0257 1.83784 19.1855L1.13629 19.2832C0.905398 19.4519 0.967561 20.0203 1.20733 20.1179C2.14866 20.0469 3.19654 19.6917 4.40428 19.6917C5.57649 19.6917 6.51782 20.0469 7.5213 20.1179C7.76108 20.0291 7.83212 19.4608 7.59235 19.2921Z" fill="#653230"/>
<path d="M7.57459 3.59138C7.57459 5.47403 6.04716 6.99258 4.17339 6.99258C2.29074 6.99258 0.772194 5.46515 0.772194 3.59138C0.763314 1.71762 2.29074 0.190186 4.16451 0.190186C6.04716 0.190186 7.57459 1.71762 7.57459 3.59138Z" fill="#653230"/>
<path d="M3.3653 21.6277C3.37418 21.6277 3.38306 21.6277 3.39194 21.6277C3.40082 21.6277 3.41858 21.6277 3.42746 21.6366C3.44522 21.6366 3.4541 21.6455 3.47186 21.6544C3.48962 21.6632 3.4985 21.6721 3.50739 21.6899C3.51627 21.7076 3.51627 21.7343 3.51627 21.7609V23.3594H3.3653V21.6277Z" fill="#653230"/>
<path d="M4.20892 21.6366C4.2178 21.6366 4.23556 21.6277 4.24444 21.6277C4.25332 21.6277 4.27108 21.6277 4.27996 21.6277C4.3066 21.6277 4.32436 21.6366 4.34212 21.6455C4.35989 21.6544 4.37765 21.6721 4.38653 21.6988L5.32785 23.1374V21.6277C5.34561 21.6277 5.35449 21.6277 5.36337 21.6277C5.37225 21.6277 5.38113 21.6277 5.39889 21.6277C5.40777 21.6277 5.42553 21.6366 5.43441 21.6455C5.4433 21.6544 5.45218 21.6721 5.46106 21.681C5.46994 21.6988 5.46994 21.7165 5.46994 21.7521V23.3505H5.31897L4.351 21.8941V23.3594H4.20892V21.6366Z" fill="#653230"/>
<path d="M6.97071 21.8853C6.96183 21.8764 6.94407 21.8586 6.92631 21.8409C6.90855 21.8231 6.88191 21.8053 6.84638 21.7876C6.81086 21.7698 6.77534 21.7609 6.73982 21.7432C6.69542 21.7343 6.65101 21.7254 6.59773 21.7254C6.52669 21.7254 6.46453 21.7343 6.42012 21.7521C6.37572 21.7698 6.3402 21.7965 6.30468 21.8231C6.27804 21.8497 6.2514 21.8853 6.24252 21.9208C6.23364 21.9563 6.22475 22.0007 6.22475 22.0362C6.22475 22.0895 6.23364 22.125 6.2514 22.1694C6.26916 22.205 6.2958 22.2405 6.33132 22.2671C6.36684 22.2938 6.40236 22.3204 6.45565 22.3382C6.50893 22.3559 6.56221 22.3826 6.62437 22.4003C6.68654 22.4181 6.7487 22.4447 6.80198 22.4714C6.85526 22.498 6.90855 22.5335 6.95295 22.569C6.99735 22.6046 7.02399 22.6579 7.05063 22.7111C7.07727 22.7644 7.08615 22.8266 7.08615 22.9065C7.08615 22.9864 7.06839 23.0575 7.04175 23.1196C7.01511 23.1818 6.97959 23.2351 6.92631 23.2795C6.87302 23.3239 6.81974 23.3505 6.7487 23.3772C6.67766 23.4038 6.60661 23.4127 6.51781 23.4127C6.44677 23.4127 6.3846 23.4038 6.33132 23.3949C6.27804 23.386 6.23363 23.3683 6.18923 23.3505C6.15371 23.3328 6.11819 23.315 6.10043 23.3061C6.07379 23.2884 6.06491 23.2795 6.05603 23.2706C6.04715 23.2617 6.03827 23.2528 6.02939 23.244C6.02051 23.2351 6.02051 23.2262 6.02051 23.2084C6.02051 23.1996 6.02939 23.1818 6.03827 23.164C6.04715 23.1463 6.06491 23.1285 6.08267 23.1019C6.10043 23.1196 6.11819 23.1374 6.14483 23.1552C6.17147 23.1729 6.19811 23.1907 6.23364 23.2173C6.26916 23.2351 6.31356 23.2528 6.35796 23.2617C6.40236 23.2706 6.46453 23.2795 6.52669 23.2795C6.60661 23.2795 6.66878 23.2706 6.72206 23.2528C6.77534 23.2351 6.81086 23.2084 6.84638 23.1729C6.87302 23.1374 6.89967 23.1019 6.90855 23.0664C6.91743 23.0219 6.92631 22.9864 6.92631 22.942C6.92631 22.8887 6.91743 22.8355 6.90855 22.7999C6.89079 22.7644 6.87302 22.7289 6.8375 22.6934C6.81086 22.6667 6.76646 22.6401 6.72206 22.6223C6.67766 22.6046 6.62437 22.5868 6.56221 22.5602C6.50005 22.5424 6.43788 22.5158 6.37572 22.4891C6.31356 22.4625 6.26028 22.4358 6.21587 22.4003C6.17147 22.3648 6.13595 22.3204 6.10931 22.2671C6.08267 22.2138 6.07379 22.1517 6.07379 22.0806C6.07379 22.0096 6.08267 21.9474 6.10931 21.8853C6.13595 21.832 6.17147 21.7787 6.21587 21.7432C6.26028 21.7076 6.31356 21.6721 6.3846 21.6544C6.44676 21.6366 6.51781 21.6277 6.59773 21.6277C6.65989 21.6277 6.7043 21.6366 6.75758 21.6455C6.80198 21.6544 6.84638 21.6632 6.88191 21.681C6.91743 21.6899 6.94407 21.7076 6.97071 21.7165C6.99735 21.7254 7.00623 21.7432 7.01511 21.7521C7.04175 21.7698 7.05063 21.7876 7.05063 21.8142C7.05063 21.832 7.03287 21.8675 7.00623 21.903H6.97071V21.8853Z" fill="#653230"/>
<path d="M8.05416 21.7609H7.45917C7.45917 21.7521 7.45917 21.7432 7.45917 21.7343C7.45917 21.6988 7.46805 21.6721 7.48581 21.6544C7.50357 21.6366 7.53909 21.6277 7.57462 21.6277H8.79123C8.79123 21.6366 8.79123 21.6455 8.79123 21.6544C8.79123 21.681 8.78235 21.7076 8.75571 21.7254C8.73795 21.7432 8.70243 21.7521 8.65803 21.7521H8.20513V23.3416H8.05416V21.7609Z" fill="#653230"/>
<path d="M9.27075 21.6277C9.27963 21.6277 9.28852 21.6277 9.2974 21.6277C9.30628 21.6277 9.32404 21.6277 9.33292 21.6366C9.35068 21.6366 9.35956 21.6455 9.37732 21.6544C9.3862 21.6632 9.40396 21.6721 9.41284 21.6899C9.42172 21.7076 9.42172 21.7343 9.42172 21.7609V23.3594H9.27075V21.6277Z" fill="#653230"/>
<path d="M10.4874 21.7609H9.8924C9.8924 21.7521 9.8924 21.7432 9.8924 21.7343C9.8924 21.6988 9.90127 21.6721 9.91903 21.6544C9.93679 21.6366 9.97232 21.6277 10.0078 21.6277H11.2156C11.2156 21.6366 11.2156 21.6455 11.2156 21.6544C11.2156 21.681 11.2067 21.7076 11.18 21.7254C11.1623 21.7432 11.1267 21.7521 11.0823 21.7521H10.6206V23.3416H10.4696V21.7609H10.4874Z" fill="#653230"/>
<path d="M11.6862 21.6277C11.6951 21.6277 11.704 21.6277 11.7129 21.6277C11.7217 21.6277 11.7395 21.6277 11.7484 21.6277C11.7661 21.6277 11.775 21.6366 11.7928 21.6455C11.8105 21.6544 11.8194 21.6721 11.8283 21.681C11.8372 21.6988 11.8372 21.7254 11.8372 21.7521V22.7111C11.8372 22.7644 11.8372 22.8088 11.8461 22.8621C11.8549 22.9065 11.8638 22.9509 11.8727 22.9953C11.8816 23.0308 11.8993 23.0664 11.926 23.1019C11.9437 23.1374 11.9793 23.164 12.0059 23.1907C12.0414 23.2173 12.0858 23.2351 12.1302 23.2528C12.1835 23.2706 12.2368 23.2795 12.3078 23.2795C12.5299 23.2795 12.6719 23.1907 12.7252 23.0131C12.743 22.9775 12.7519 22.9243 12.7519 22.8799C12.7519 22.8266 12.7607 22.7822 12.7607 22.7289V21.6455C12.7696 21.6455 12.7785 21.6455 12.7874 21.6455C12.7963 21.6455 12.814 21.6455 12.8229 21.6455C12.8407 21.6455 12.8495 21.6544 12.8673 21.6632C12.8851 21.6721 12.894 21.6899 12.9028 21.6988C12.9117 21.7165 12.9117 21.7432 12.9117 21.7698V22.6934C12.9117 22.7289 12.9117 22.7644 12.9117 22.7999C12.9117 22.8355 12.9117 22.871 12.9028 22.8976C12.894 22.9687 12.8762 23.0397 12.8495 23.1019C12.8229 23.164 12.7874 23.2173 12.7341 23.2617C12.6808 23.3061 12.6275 23.3416 12.5476 23.3683C12.4766 23.3949 12.3878 23.4038 12.2901 23.4038C12.0947 23.4038 11.9526 23.3594 11.8549 23.2706C11.7573 23.1818 11.704 23.0575 11.6862 22.8976C11.6862 22.871 11.6773 22.8355 11.6773 22.7999C11.6773 22.7644 11.6773 22.7289 11.6773 22.6934V21.6277H11.6862Z" fill="#653230"/>
<path d="M13.9774 21.7609H13.3824C13.3824 21.7521 13.3824 21.7432 13.3824 21.7343C13.3824 21.6988 13.3913 21.6721 13.409 21.6544C13.4268 21.6366 13.4623 21.6277 13.4978 21.6277H14.7056C14.7056 21.6366 14.7056 21.6455 14.7056 21.6544C14.7056 21.681 14.6967 21.7076 14.67 21.7254C14.6523 21.7432 14.6168 21.7521 14.5723 21.7521H14.1106V23.3416H13.9596V21.7609H13.9774Z" fill="#653230"/>
<path d="M15.1585 23.1106C15.1052 23.0307 15.0608 22.933 15.0341 22.8175C15.0075 22.711 14.9986 22.5955 14.9986 22.4801C14.9986 22.3646 15.0164 22.2492 15.043 22.1426C15.0696 22.0361 15.114 21.9384 15.1762 21.8585C15.2384 21.7785 15.3183 21.7075 15.4071 21.6631C15.5048 21.6187 15.6114 21.592 15.7446 21.592C15.8689 21.592 15.9843 21.6187 16.0731 21.6631C16.1619 21.7075 16.233 21.7696 16.2951 21.8496C16.3484 21.9295 16.3928 22.0272 16.4195 22.1337C16.4461 22.2403 16.455 22.3558 16.455 22.4712C16.455 22.5955 16.4372 22.711 16.4106 22.8175C16.3839 22.9241 16.3395 23.0218 16.2774 23.1106C16.2152 23.1905 16.1442 23.2616 16.0465 23.306C15.9577 23.3592 15.8422 23.377 15.709 23.377C15.5758 23.377 15.4693 23.3504 15.3716 23.2971C15.2917 23.2616 15.2206 23.1994 15.1585 23.1106ZM15.4604 23.1994C15.5314 23.2438 15.6202 23.2616 15.7268 23.2616C15.8334 23.2616 15.9222 23.2438 15.9932 23.1994C16.0643 23.155 16.1264 23.1017 16.1708 23.0307C16.2152 22.9596 16.2419 22.8797 16.2685 22.782C16.2863 22.6843 16.2951 22.5955 16.2951 22.489C16.2951 22.3913 16.2863 22.2936 16.2685 22.2048C16.2507 22.116 16.2152 22.0361 16.1797 21.965C16.1353 21.894 16.082 21.8407 16.011 21.7963C15.9399 21.7519 15.8511 21.7341 15.7446 21.7341C15.638 21.7341 15.5403 21.7519 15.4693 21.7963C15.3982 21.8407 15.3361 21.894 15.2917 21.965C15.2473 22.0361 15.2117 22.116 15.194 22.2048C15.1762 22.2936 15.1673 22.3913 15.1673 22.489C15.1673 22.5866 15.1762 22.6843 15.194 22.782C15.2117 22.8797 15.2473 22.9596 15.2917 23.0307C15.3272 23.1017 15.3893 23.155 15.4604 23.1994Z" fill="#653230"/>
<path d="M8.16069 28.6963L8.27614 29.016L8.61359 29.0338L8.34718 29.238L8.43598 29.5666L8.16069 29.3801L7.87652 29.5666L7.96532 29.238L7.69891 29.0338L8.03637 29.016L8.16069 28.6963Z" fill="#653230"/>
<path d="M6.39351 28.6963L6.51784 29.016L6.85529 29.0338L6.58888 29.238L6.67768 29.5666L6.39351 29.3801L6.10934 29.5666L6.20702 29.238L5.94061 29.0338L6.27807 29.016L6.39351 28.6963Z" fill="#653230"/>
<path d="M4.61739 28.6963L4.74172 29.016L5.07917 29.0338L4.81276 29.238L4.90156 29.5666L4.61739 29.3801L4.3421 29.5666L4.4309 29.238L4.16449 29.0338L4.50194 29.016L4.61739 28.6963Z" fill="#653230"/>
<path d="M15.5403 28.6963L15.6558 29.016L15.9932 29.0338L15.7268 29.238L15.8156 29.5666L15.5403 29.3801L15.2561 29.5666L15.3449 29.238L15.0785 29.0338L15.416 29.016L15.5403 28.6963Z" fill="#653230"/>
<path d="M13.7553 28.6963L13.8708 29.016L14.2171 29.0338L13.9507 29.238L14.0395 29.5666L13.7553 29.3801L13.4712 29.5666L13.56 29.238L13.2936 29.0338L13.631 29.016L13.7553 28.6963Z" fill="#653230"/>
<path d="M11.9881 28.6963L12.1036 29.016L12.4411 29.0338L12.1746 29.238L12.2723 29.5666L11.9881 29.3801L11.704 29.5666L11.7928 29.238L11.5264 29.0338L11.8638 29.016L11.9881 28.6963Z" fill="#653230"/>
<path d="M10.0433 28.4209L10.2032 28.8383L10.6472 28.8649L10.3009 29.1402L10.4163 29.5754L10.0433 29.3267L9.67037 29.5754L9.78582 29.1402L9.4306 28.8649L9.8835 28.8383L10.0433 28.4209Z" fill="#653230"/>
<path d="M11.2866 26.7694C11.2511 26.8315 11.2067 26.8759 11.1623 26.9114C11.1179 26.9558 11.0646 26.9736 11.0024 26.9736C10.958 26.9736 10.9136 26.9647 10.887 26.9381C10.8603 26.9114 10.8337 26.8759 10.8159 26.8226C10.7982 26.7694 10.7893 26.6894 10.7804 26.5917C10.7715 26.4941 10.7715 26.3609 10.7715 26.2099V25.9612C10.7715 25.8636 10.7715 25.7748 10.7715 25.6771C10.7715 25.5883 10.7804 25.5083 10.7804 25.4373C10.7804 25.3663 10.7893 25.3219 10.7893 25.2952C10.7982 25.1531 10.7271 25.1087 10.665 25.1354C10.6117 25.162 10.5495 25.2064 10.4785 25.2686C10.4074 25.3307 10.3719 25.4107 10.3719 25.4995C10.363 25.6859 10.3275 25.8724 10.2831 26.0678C10.2654 26.13 10.2298 26.2099 10.1854 26.3253C10.141 26.4319 10.0877 26.5473 10.0256 26.6539C9.96342 26.7605 9.90126 26.8493 9.83021 26.9292C9.75917 27.0091 9.68813 27.0446 9.62596 27.0446C9.5194 27.0446 9.44835 26.9825 9.42171 26.8582C9.39507 26.7338 9.37731 26.5118 9.37731 26.1921V25.9435C9.37731 25.8458 9.37731 25.757 9.37731 25.6682C9.37731 25.5794 9.38619 25.4995 9.38619 25.4284C9.38619 25.3574 9.39507 25.313 9.39507 25.2863C9.40395 25.1709 9.33291 25.0998 9.27075 25.1265C9.21746 25.1531 9.1553 25.1975 9.07538 25.2597C9.00433 25.3218 8.96881 25.4018 8.96881 25.4906V26.2987C8.96881 26.4852 8.97769 26.645 8.99545 26.7694C8.95993 26.8226 8.92441 26.867 8.88889 26.9026C8.84449 26.947 8.7912 26.9647 8.72904 26.9647C8.68464 26.9647 8.64912 26.9558 8.6136 26.9292C8.60472 26.9292 8.58696 26.8848 8.56919 26.8315C8.55143 26.7782 8.54255 26.6983 8.53367 26.6006C8.52479 26.4941 8.52479 26.3697 8.52479 26.2188C8.52479 26.1744 8.52479 26.1122 8.52479 26.0323C8.52479 25.9524 8.53367 25.8724 8.53367 25.7836C8.54255 25.6948 8.55143 25.6149 8.56031 25.5261C8.58696 25.2774 8.41823 25.2419 8.3383 25.2597C8.27614 25.2774 8.16958 25.313 8.08077 25.2419C8.00085 25.1709 7.86764 25.1354 7.69891 25.1354C7.59235 25.1354 7.48578 25.1531 7.37034 25.1975C7.25489 25.2419 7.14833 25.313 7.05064 25.4107C6.95296 25.5083 6.87304 25.6415 6.81087 25.8103C6.76647 25.9346 6.73095 26.0944 6.72207 26.2721C6.68655 26.3431 6.65103 26.423 6.60662 26.5029C6.55334 26.6006 6.49118 26.6894 6.42013 26.7694C6.34909 26.8493 6.27805 26.9203 6.18924 26.9736C6.10932 27.0269 6.02052 27.0535 5.93171 27.0535C5.86067 27.0535 5.78963 27.0446 5.71858 27.018C5.64754 26.9914 5.59426 26.9558 5.54097 26.8937C5.48769 26.8404 5.45217 26.7605 5.42553 26.6628C5.39889 26.5651 5.38113 26.4497 5.38113 26.3165C5.38113 26.1211 5.39889 25.9524 5.42553 25.8192C5.46105 25.6859 5.49657 25.5794 5.54985 25.4906C5.60314 25.4107 5.71858 25.2597 5.89619 25.2597C6.09156 25.2597 6.25141 25.3307 6.25141 25.4639C6.25141 25.4906 6.17148 25.8636 6.46454 25.8192C6.60662 25.8014 6.6155 25.6149 6.57998 25.5261C6.44678 25.1709 6.04716 25.1265 5.86955 25.1265C5.77187 25.1265 5.65642 25.1442 5.54097 25.1798C5.43441 25.2153 5.32784 25.2774 5.23904 25.3663C5.15024 25.4551 5.07031 25.5794 5.00815 25.7303C4.94599 25.8813 4.91047 26.0856 4.91047 26.3165C4.91047 26.4941 4.93711 26.645 4.98151 26.7605C4.99039 26.7782 4.99927 26.796 5.00815 26.8138C4.98151 26.8493 4.95487 26.8759 4.92823 26.9026C4.88382 26.947 4.83054 26.9647 4.76838 26.9647C4.72398 26.9647 4.68845 26.9558 4.65293 26.9292C4.66181 26.9292 4.63517 26.8848 4.61741 26.8315C4.59965 26.7782 4.59077 26.6983 4.58189 26.6006C4.57301 26.5029 4.57301 26.3786 4.57301 26.2188C4.57301 26.1744 4.57301 26.1122 4.57301 26.0323C4.57301 25.9524 4.58189 25.8724 4.58189 25.7836C4.59077 25.6948 4.59077 25.6149 4.59965 25.5261C4.62629 25.2774 4.45756 25.2419 4.37764 25.2597C4.31548 25.2774 4.20891 25.313 4.12011 25.2419C4.04018 25.1709 3.90698 25.1354 3.73825 25.1354C3.63169 25.1354 3.52512 25.1531 3.40968 25.1975C3.29423 25.2419 3.18767 25.313 3.08998 25.4107C2.9923 25.5083 2.91237 25.6415 2.85021 25.8103C2.78805 25.979 2.76141 26.1832 2.76141 26.4408C2.76141 26.7161 2.81469 26.9203 2.92125 27.0624C3.02782 27.2045 3.15214 27.2755 3.29423 27.2755C3.41856 27.2755 3.534 27.2311 3.63169 27.1512C3.72937 27.0713 3.81817 26.9647 3.88922 26.8493C3.96026 26.7338 4.02242 26.6184 4.07571 26.5029C4.12011 26.3875 4.15563 26.2898 4.18227 26.2277C4.18227 26.5562 4.20891 26.8138 4.2622 27.0002C4.32436 27.1779 4.4398 27.2667 4.61741 27.2667C4.72398 27.2667 4.82166 27.2311 4.91047 27.1601C4.98151 27.0979 5.05255 27.0269 5.10583 26.9381C5.14136 26.9825 5.168 27.0269 5.2124 27.0624C5.29232 27.1335 5.38113 27.1867 5.48769 27.2223C5.59426 27.2578 5.70082 27.2667 5.79851 27.2667C5.94059 27.2667 6.06492 27.2311 6.17148 27.1601C6.28693 27.0891 6.38461 27.0091 6.46454 26.9114C6.54446 26.8138 6.6155 26.7072 6.66879 26.6006C6.68655 26.5651 6.70431 26.5296 6.72207 26.5029C6.73095 26.7427 6.78423 26.9292 6.87304 27.0535C6.9796 27.1956 7.10393 27.2667 7.24601 27.2667C7.37034 27.2667 7.4769 27.2223 7.58347 27.1423C7.68115 27.0624 7.76996 26.9558 7.841 26.8404C7.91204 26.725 7.97421 26.6095 8.02749 26.4941C8.07189 26.3786 8.10741 26.2809 8.13405 26.2188C8.13405 26.5473 8.1607 26.8049 8.21398 26.9914C8.26726 27.1779 8.38271 27.2755 8.56031 27.2755C8.66688 27.2755 8.76456 27.24 8.85337 27.169C8.92441 27.1068 8.99545 27.0358 9.04874 26.9558C9.05762 26.9914 9.0665 27.0269 9.08426 27.0624C9.14642 27.2045 9.27963 27.2755 9.475 27.2755C9.59044 27.2755 9.68813 27.24 9.78581 27.1512C9.8835 27.0713 9.9723 26.9736 10.0522 26.867C10.1321 26.7516 10.1943 26.6362 10.2565 26.5207C10.3098 26.4053 10.3542 26.2987 10.3897 26.2188C10.3897 26.5651 10.4163 26.8226 10.4696 27.0002C10.5229 27.1779 10.6383 27.2667 10.8248 27.2667C10.9403 27.2667 11.0379 27.2311 11.1268 27.1601C11.2156 27.0891 11.2866 27.0091 11.3488 26.9114C11.4198 26.7871 11.3488 26.6717 11.2866 26.7694ZM4.12899 25.979C4.08459 26.1388 4.0313 26.2987 3.96026 26.4585C3.8981 26.6184 3.81817 26.7516 3.72937 26.8759C3.64057 26.9914 3.55176 27.0535 3.46296 27.0535C3.40968 27.0535 3.35639 27.0091 3.30311 26.9114C3.24983 26.8226 3.22319 26.6539 3.22319 26.423C3.22319 26.0234 3.27647 25.7303 3.38303 25.535C3.4896 25.3485 3.62281 25.2508 3.77377 25.2508C3.90698 25.2508 4.01354 25.2952 4.08459 25.3751C4.15563 25.4551 4.19115 25.535 4.19115 25.6149C4.19115 25.7037 4.17339 25.8192 4.12899 25.979ZM8.07189 25.979C8.02749 26.1388 7.97421 26.2987 7.91204 26.4585C7.84988 26.6184 7.76996 26.7516 7.68115 26.8759C7.59235 26.9914 7.50355 27.0535 7.41474 27.0535C7.36146 27.0535 7.30818 27.0091 7.25489 26.9114C7.20161 26.8226 7.17497 26.6539 7.17497 26.423C7.17497 26.0234 7.22825 25.7303 7.33482 25.535C7.44138 25.3485 7.57459 25.2508 7.72556 25.2508C7.85876 25.2508 7.96533 25.2952 8.03637 25.3751C8.10741 25.4551 8.14293 25.535 8.14293 25.6149C8.14293 25.7037 8.11629 25.8192 8.07189 25.979Z" fill="#653230"/>
<path d="M13.116 25.7124C12.9916 25.6236 12.8495 25.5615 12.5565 25.4283C12.3256 25.3217 12.2279 25.295 12.1302 25.2329C11.9349 25.1086 11.8461 24.9665 11.8461 24.78C11.8461 24.4603 12.0947 24.256 12.4677 24.256C12.7341 24.256 12.9472 24.3537 12.9472 24.5047L12.9384 24.5491C12.9206 24.6113 12.9206 24.6379 12.9206 24.6468C12.9117 24.7711 13.0183 24.8599 13.116 24.8599C13.2314 24.8599 13.3202 24.7533 13.3202 24.629C13.3202 24.3626 12.9295 24.114 12.4677 24.114C11.9437 24.114 11.5086 24.4958 11.5086 24.9665C11.5086 25.2062 11.6063 25.4016 11.8283 25.5348C11.9349 25.6059 12.0503 25.668 12.3256 25.7923C12.5743 25.8989 12.6719 25.9611 12.7696 26.0232C12.9916 26.1653 13.1071 26.3252 13.1071 26.5561C13.1071 26.929 12.8229 27.1422 12.4144 27.1422C12.1924 27.1422 12.0592 27.1244 11.9704 26.9823C11.9526 26.9557 11.9437 26.929 11.9437 26.9024V26.8846C11.9526 26.8669 11.9526 26.858 11.9526 26.8491C11.9615 26.8402 11.9615 26.8314 11.9615 26.8225L11.9704 26.8047L11.9793 26.7514C11.9793 26.6449 11.8816 26.5383 11.7839 26.5383C11.6773 26.5383 11.5796 26.6449 11.5796 26.7692C11.5796 27.0445 11.9793 27.2754 12.4499 27.2754C12.7075 27.2754 12.9117 27.1955 13.116 27.0178C13.3202 26.8314 13.4268 26.6093 13.4268 26.3518C13.4179 26.112 13.3291 25.89 13.116 25.7124Z" fill="#653230"/>
<path d="M19.945 25.1353C19.9095 25.082 19.8562 25.0554 19.8029 25.0554C19.6963 25.0554 19.6431 25.1086 19.6431 25.2152C19.6431 25.2596 19.6519 25.304 19.6697 25.3395C19.6875 25.3751 19.7052 25.4106 19.723 25.455C19.7407 25.4905 19.7585 25.5349 19.7763 25.5704C19.794 25.6059 19.8029 25.6503 19.8029 25.6947C19.8029 25.7658 19.794 25.8546 19.7674 25.9612C19.7407 26.0677 19.7052 26.1832 19.6608 26.2986C19.6164 26.4141 19.5631 26.5384 19.5099 26.6627C19.4477 26.787 19.3855 26.8936 19.3234 26.9824C19.3056 26.9824 19.2878 26.9469 19.2612 26.8847C19.2346 26.8226 19.2079 26.7338 19.1724 26.6361C19.1458 26.5295 19.1102 26.4229 19.0747 26.2986C19.0392 26.1743 19.0126 26.0588 18.977 25.9434C18.9504 25.828 18.9237 25.7214 18.906 25.6237C18.8261 25.1886 18.8793 24.9843 18.5685 25.233C18.4975 25.2863 18.4442 25.4106 18.5064 25.6947C18.5241 25.7569 18.533 25.8013 18.5508 25.8724C18.5241 25.9612 18.4886 26.0588 18.4442 26.1832C18.3998 26.3075 18.3554 26.4229 18.311 26.5384C18.2666 26.6538 18.2222 26.7515 18.1867 26.8314C18.1512 26.9114 18.1245 26.9469 18.1067 26.9469C18.0979 26.9469 18.0801 26.9202 18.0535 26.8581C18.0268 26.8048 17.7427 25.677 17.7338 25.6592C17.6361 25.2152 17.6982 24.9932 17.3874 25.2418C17.3164 25.2951 17.272 25.4106 17.3164 25.6592C17.3164 25.6681 17.3164 25.6859 17.3253 25.6947C17.3253 25.7036 17.3342 25.7125 17.3342 25.7303C17.343 25.7658 17.3519 25.8013 17.3608 25.8368C17.3963 25.9789 17.4496 26.2098 17.5206 26.4496C17.5917 26.716 17.6982 27.0179 17.7249 27.089C17.8492 27.4264 18.089 27.2488 18.1689 27.1067C18.2044 27.0357 18.2488 26.9558 18.2932 26.867C18.3376 26.7782 18.382 26.6805 18.4176 26.5828C18.462 26.4851 18.4975 26.3874 18.533 26.2986C18.5685 26.2098 18.5952 26.121 18.6218 26.0588C18.6485 26.1654 18.684 26.272 18.7106 26.3874C18.7461 26.5029 18.7728 26.6094 18.7994 26.7071C18.8261 26.8048 18.8527 26.8936 18.8793 26.9646C18.8971 27.0357 18.9149 27.0801 18.9237 27.0979C18.9593 27.1778 19.0037 27.2311 19.057 27.2666C19.1191 27.3021 19.279 27.3465 19.4122 27.1156C19.4832 26.9913 19.5543 26.867 19.6253 26.716C19.6963 26.5739 19.7585 26.4229 19.8118 26.2631C19.8651 26.1121 19.9095 25.9612 19.945 25.8102C19.9805 25.6592 19.9983 25.526 19.9983 25.4017C20.0072 25.2685 19.9805 25.1886 19.945 25.1353Z" fill="#653230"/>
<path d="M17.05 25.4549C16.9878 25.3573 16.9079 25.2862 16.8102 25.2241C16.7125 25.1619 16.606 25.1352 16.4728 25.1352C16.3573 25.1352 16.2419 25.153 16.1353 25.1974C16.0287 25.2418 15.9311 25.304 15.8511 25.3928C15.7712 25.4816 15.7002 25.597 15.6469 25.7302C15.5936 25.8634 15.567 26.0233 15.567 26.2098C15.567 26.3874 15.5936 26.5472 15.638 26.6804C15.6558 26.7248 15.6735 26.7692 15.6913 26.8136C15.6646 26.8492 15.638 26.8847 15.6025 26.9113C15.5581 26.9557 15.5048 26.9735 15.4515 26.9735C15.4071 26.9735 15.3716 26.9646 15.3538 26.938C15.3272 26.9113 15.3094 26.8758 15.3005 26.8048C15.2917 26.7426 15.2828 26.6538 15.2828 26.5295C15.2828 26.414 15.2828 26.2542 15.2828 26.0588C15.2828 25.7125 15.2828 25.5082 15.2295 25.3573C15.1673 25.1885 15.0341 25.1086 14.8565 25.1086C14.7411 25.1086 14.6345 25.1441 14.5368 25.2241C14.4391 25.304 14.3503 25.4017 14.2793 25.5171C14.2083 25.6326 14.1372 25.748 14.0928 25.8723C14.0395 25.9966 14.004 26.0943 13.9774 26.1743C13.9774 26.1743 13.9774 25.7924 13.9774 25.2685C13.9774 24.8156 13.9774 24.6735 13.9774 24.3183C13.9774 24.1318 13.8175 24.2206 13.7198 24.3094C13.6221 24.4071 13.5955 24.4337 13.5955 24.558C13.5955 24.6823 13.6044 26.8225 13.5955 26.8936C13.5955 26.9646 13.5777 27.0357 13.5777 27.0623C13.5689 27.0978 13.56 27.1333 13.5511 27.1511C13.5422 27.1777 13.5333 27.1955 13.5333 27.2044C13.5333 27.231 13.5422 27.2399 13.5689 27.2399C13.6044 27.2399 13.6488 27.231 13.7021 27.2044C13.7554 27.1777 13.8175 27.1333 13.8797 27.0712C13.9418 27.009 13.9774 26.938 13.9774 26.8403C13.9774 26.7337 13.9862 26.636 14.004 26.5295C14.0218 26.4229 14.0484 26.3252 14.075 26.2275C14.0928 26.1654 14.1283 26.0766 14.1638 25.9789C14.2083 25.8812 14.2527 25.7746 14.3059 25.677C14.3592 25.5793 14.4214 25.4905 14.4835 25.4194C14.5457 25.3484 14.6168 25.3129 14.6789 25.3129C14.7233 25.3129 14.7677 25.3217 14.7944 25.3484C14.821 25.375 14.8565 25.4105 14.8654 25.4727C14.8832 25.5615 14.8832 25.6148 14.8832 25.7125C14.8832 25.8634 14.8743 25.9522 14.8743 26.1121C14.8743 26.494 14.892 26.7781 14.9364 26.9557C14.9808 27.1333 15.1141 27.231 15.2828 27.231C15.3893 27.231 15.4782 27.1955 15.5581 27.1245C15.638 27.0623 15.7002 26.9824 15.7623 26.8847C15.7801 26.9113 15.8067 26.9469 15.8334 26.9735C15.9133 27.0623 16.0021 27.1245 16.1087 27.1689C16.2152 27.2133 16.3218 27.231 16.4372 27.231C16.6148 27.231 16.7836 27.1777 16.9079 27.0445C17.1921 26.7515 17.2187 26.3341 17.2276 26.2275C17.2276 26.1743 17.2276 26.1299 17.2276 26.0677C17.2276 25.9522 17.2098 25.8368 17.1832 25.7214C17.1565 25.6503 17.1121 25.5437 17.05 25.4549ZM16.8546 26.9557C16.7747 27.0623 16.6415 27.0978 16.5083 27.0978C16.384 27.0978 16.233 27.0268 16.1442 26.8847C16.0554 26.7426 16.0021 26.5117 16.0021 26.192C16.0021 25.8723 16.0465 25.6414 16.1442 25.4905C16.233 25.3484 16.3928 25.2685 16.5083 25.2685C16.606 25.2685 16.6859 25.2951 16.7569 25.3395C16.828 25.3839 16.8813 25.4461 16.9345 25.526C16.9789 25.597 17.0145 25.677 17.0411 25.7658C17.0677 25.8546 17.2009 26.5117 16.8546 26.9557Z" fill="#653230"/>
<path d="M1.69575 24.2385C1.92664 24.2474 2.07761 24.2918 2.19306 24.425C2.28186 24.5227 2.21082 24.7092 2.29074 24.8157C2.40619 24.9756 2.60155 24.9489 2.66372 24.869C2.77916 24.7447 2.72588 24.6026 2.6282 24.5049C2.36178 24.2296 1.99769 24.123 1.59807 24.123C0.727792 24.123 0.0440005 24.8335 0.0528809 25.7126C0.0617613 26.796 0.789955 27.3378 1.66023 27.3378C2.05097 27.3378 2.39731 27.1601 2.6726 26.9293C2.717 26.8937 2.74364 26.8049 2.68148 26.7516C2.60155 26.6806 2.52163 26.7605 2.49499 26.7872C2.2641 27.0536 1.99769 27.1868 1.65135 27.1868C0.940922 27.1868 0.567945 26.5652 0.567945 25.7215C0.567945 24.8779 1.05636 24.2207 1.69575 24.2385Z" fill="#653230"/>
</g>
<defs>
<clipPath id="clip0_4420_9812">
<rect width="20" height="30" fill="white"/>
</clipPath>
</defs>
</svg>
